HIERARCHY
ROOT hip
{
	OFFSET 0.000000 0.000000 0.000000
	CHANNELS 6 Xposition Yposition Zposition Xrotation Zrotation Yrotation 
	JOINT abdomen
	{
		OFFSET 0.000000 3.422050 0.000000
		CHANNELS 3 Xrotation Zrotation Yrotation 
		JOINT chest
		{
			OFFSET 0.000000 8.486693 -0.684411
			CHANNELS 3 Xrotation Zrotation Yrotation 
			JOINT neck
			{
				OFFSET 0.000000 10.266162 -0.273764
				CHANNELS 3 Xrotation Zrotation Yrotation 
				JOINT head
				{
					OFFSET 0.000000 3.148285 0.000000
					CHANNELS 3 Xrotation Zrotation Yrotation 
					End Site
					{
						OFFSET 0.000000 3.148289 0.000000
					}
				}
			}
			JOINT lCollar
			{
				OFFSET 3.422053 6.707223 -0.821293
				CHANNELS 3 Yrotation Zrotation Xrotation 
				JOINT lShldr
				{
					OFFSET 3.285171 0.000000 0.000000
					CHANNELS 3 Zrotation Yrotation Xrotation 
					JOINT lForeArm
					{
						OFFSET 10.129278 0.000000 0.000000
						CHANNELS 3 Yrotation Zrotation Xrotation 
						JOINT lHand
						{
							OFFSET 8.486692 0.000000 0.000000
							CHANNELS 3 Zrotation Yrotation Xrotation 
							End Site
							{
								OFFSET 4.106464 0.000000 0.000000
							}
						}
					}
				}
			}
			JOINT rCollar
			{
				OFFSET -3.558935 6.707223 -0.821293
				CHANNELS 3 Yrotation Zrotation Xrotation 
				JOINT rShldr
				{
					OFFSET -3.148289 0.000000 0.000000
					CHANNELS 3 Zrotation Yrotation Xrotation 
					JOINT rForeArm
					{
						OFFSET -10.266159 0.000000 0.000000
						CHANNELS 3 Yrotation Zrotation Xrotation 
						JOINT rHand
						{
							OFFSET -8.349810 0.000000 0.000000
							CHANNELS 3 Zrotation Yrotation Xrotation 
							End Site
							{
								OFFSET -4.106464 0.000000 0.000000
							}
						}
					}
				}
			}
		}
	}
	JOINT lThigh
	{
		OFFSET 5.338403 -1.642589 1.368821
		CHANNELS 3 Xrotation Zrotation Yrotation 
		JOINT lShin
		{
			OFFSET -2.053232 -20.121670 0.000000
			CHANNELS 3 Xrotation Zrotation Yrotation 
			JOINT lFoot
			{
				OFFSET 0.000000 -19.300380 -1.231939
				CHANNELS 3 Xrotation Yrotation Zrotation 
				End Site
				{
					OFFSET 0.000000 -2.463878 4.653993
				}
			}
		}
	}
	JOINT rThigh
	{
		OFFSET -5.338403 -1.642589 1.368821
		CHANNELS 3 Xrotation Zrotation Yrotation 
		JOINT rShin
		{
			OFFSET 2.053232 -20.121670 0.000000
			CHANNELS 3 Xrotation Zrotation Yrotation 
			JOINT rFoot
			{
				OFFSET 0.000000 -19.300380 -1.231939
				CHANNELS 3 Xrotation Yrotation Zrotation 
				End Site
				{
					OFFSET 0.000000 -2.463878 4.653993
				}
			}
		}
	}
}
MOTION
Frames: 11
Frame Time: 0.049897
0.000000 43.528500 0.000000 0.000000 0.000000 0.000000 0.000000 0.000000 0.000000 0.000000 0.000000 0.000000 0.000000 0.000000 0.000000 0.000000 0.000000 0.000000 0.000000 0.000000 0.000000 0.000000 0.000000 0.000000 0.000000 0.000000 0.000000 0.000000 0.000000 0.000000 0.000000 0.000000 0.000000 0.000000 0.000000 0.000000 0.000000 0.000000 0.000000 0.000000 0.000000 0.000000 0.000000 0.000000 0.000000 0.000000 0.000000 0.000000 0.000000 0.000000 0.000000 0.000000 0.000000 0.000000 0.000000 0.000000 0.000000 0.000000 0.000000 0.000000 
0.000000 7.889141 0.000000 0.000000 90.000000 0.000000 -0.344029 -19.016638 0.984869 -0.441132 -26.018034 -0.459802 25.996576 -18.000849 27.999247 0.068275 0.099607 0.096227 0.270925 -7.999191 -0.010855 -2.680326 36.113747 30.198875 -95.011368 0.008037 -0.692707 -53.265114 -1.087136 -0.790906 -0.002182 7.999156 -0.194408 21.738039 -36.002834 16.550611 126.995132 -13.103081 59.106812 6.928253 -0.001202 10.597393 -40.130871 8.965170 67.036255 48.264778 -1.961462 -0.091223 40.309349 3.775821 8.104119 -28.126991 -5.470768 -0.164252 40.396435 2.328179 0.139181 42.078896 -3.499094 -7.657232 
0.000000 7.889141 0.000000 0.000000 90.000000 0.000000 -0.344029 -19.016638 0.984869 -0.441132 -26.018034 -0.459802 26.029575 -18.094681 28.044918 0.068046 0.099274 0.095905 0.270925 -7.999192 -0.010855 -2.680321 36.113522 30.198875 -95.011284 0.008109 -1.418146 -51.857288 -1.467402 -1.885377 -0.002182 7.999157 -0.194408 21.738039 -36.002834 16.550611 126.995140 -13.102746 59.106457 6.928488 -0.001201 10.597395 -40.130856 8.965119 67.036255 48.264614 -1.961462 -0.091220 40.309349 3.775821 8.104119 -28.126991 -5.470768 -0.164252 40.396309 2.328180 0.139179 42.078896 -3.499094 -7.657232 
0.000000 7.889141 0.000000 0.000000 90.000000 0.000000 -0.344029 -19.016638 0.984869 -0.441132 -26.018034 -0.459802 26.062510 -18.188557 28.090565 0.067817 0.098941 0.095583 0.270925 -7.999192 -0.010855 -2.680321 36.113285 30.198872 -95.011223 0.008182 -2.147591 -50.432518 -1.822911 -2.996614 -0.002182 7.999156 -0.194408 21.738041 -36.002838 16.550611 126.995171 -13.102410 59.106110 6.928724 -0.001199 10.597396 -40.130844 8.965067 67.036255 48.264442 -1.961463 -0.091218 40.309349 3.775821 8.104119 -28.126993 -5.470768 -0.164252 40.396187 2.328180 0.139176 42.078896 -3.499094 -7.657232 
0.000000 7.889141 0.000000 0.000000 90.000000 0.000000 -0.344029 -19.016638 0.984869 -0.441132 -26.018034 -0.459802 26.095398 -18.282480 28.136189 0.067589 0.098608 0.095261 0.270925 -7.999192 -0.010855 -2.680316 36.113060 30.198875 -95.011147 0.008253 -2.881015 -48.991741 -2.152608 -4.123695 -0.002182 7.999157 -0.194408 21.738039 -36.002834 16.550611 126.995186 -13.102076 59.105755 6.928960 -0.001198 10.597397 -40.130836 8.965014 67.036255 48.264278 -1.961463 -0.091215 40.309349 3.775821 8.104119 -28.126991 -5.470768 -0.164252 40.396061 2.328180 0.139174 42.078896 -3.499094 -7.657232 
0.000000 7.889141 0.000000 0.000000 90.000000 0.000000 -0.344029 -19.016640 0.984869 -0.441132 -26.018036 -0.459802 26.128231 -18.376450 28.181797 0.067360 0.098275 0.094939 0.270925 -7.999191 -0.010855 -2.680312 36.112831 30.198872 -95.011086 0.008325 -3.618390 -47.535980 -2.455488 -5.265615 -0.002182 7.999156 -0.194408 21.738043 -36.002834 16.550610 126.995201 -13.101742 59.105396 6.929195 -0.001196 10.597399 -40.130821 8.964959 67.036255 48.264111 -1.961463 -0.091212 40.309349 3.775822 8.104120 -28.126991 -5.470768 -0.164252 40.395935 2.328180 0.139171 42.078896 -3.499094 -7.657232 
0.000000 7.889141 0.000000 0.000000 90.000000 0.000000 -0.344029 -19.016642 0.984869 -0.441132 -26.018036 -0.459802 26.161018 -18.470467 28.227381 0.067132 0.097942 0.094617 0.270925 -7.999192 -0.010855 -2.680310 36.112602 30.198870 -95.011009 0.008395 -4.359685 -46.066311 -2.730601 -6.421277 -0.002182 7.999158 -0.194408 21.738039 -36.002834 16.550611 126.995224 -13.101406 59.105042 6.929431 -0.001194 10.597400 -40.130810 8.964909 67.036255 48.263947 -1.961463 -0.091209 40.309353 3.775822 8.104121 -28.126991 -5.470768 -0.164252 40.395813 2.328180 0.139169 42.078896 -3.499094 -7.657232 
0.000000 7.889141 0.000000 0.000000 90.000000 0.000000 -0.344029 -19.016638 0.984869 -0.441132 -26.018034 -0.459802 26.193737 -18.564522 28.272932 0.066903 0.097609 0.094295 0.270925 -7.999191 -0.010855 -2.680306 36.112370 30.198870 -95.010925 0.008465 -5.104871 -44.583935 -2.977068 -7.589510 -0.002182 7.999156 -0.194408 21.738039 -36.002834 16.550611 126.995224 -13.101069 59.104687 6.929666 -0.001193 10.597401 -40.130798 8.964855 67.036247 48.263779 -1.961463 -0.091206 40.309349 3.775821 8.104119 -28.126989 -5.470768 -0.164252 40.395683 2.328180 0.139166 42.078896 -3.499094 -7.657231 
0.000000 7.889141 0.000000 0.000000 90.000000 0.000000 -0.344029 -19.016638 0.984869 -0.441132 -26.018034 -0.459802 26.226410 -18.658627 28.318472 0.066674 0.097277 0.093973 0.270925 -7.999191 -0.010855 -2.680304 36.112137 30.198866 -95.010857 0.008534 -5.853915 -43.090096 -3.194080 -8.769059 -0.002182 7.999156 -0.194408 21.738035 -36.002831 16.550610 126.995239 -13.100735 59.104332 6.929902 -0.001191 10.597402 -40.130779 8.964800 67.036255 48.263607 -1.961463 -0.091203 40.309349 3.775821 8.104118 -28.126991 -5.470767 -0.164252 40.395557 2.328180 0.139164 42.078896 -3.499094 -7.657231 
0.000000 7.889141 0.000000 0.000000 90.000000 0.000000 -0.344029 -19.016636 0.984869 -0.441132 -26.018034 -0.459802 26.259026 -18.752775 28.363985 0.066446 0.096944 0.093651 0.270925 -7.999191 -0.010855 -2.680301 36.111904 30.198862 -95.010773 0.008603 -6.606782 -41.586109 -3.380910 -9.958599 -0.002182 7.999156 -0.194408 21.738037 -36.002827 16.550610 126.995270 -13.100400 59.103985 6.930137 -0.001190 10.597404 -40.130768 8.964748 67.036247 48.263443 -1.961463 -0.091200 40.309349 3.775821 8.104118 -28.126991 -5.470768 -0.164252 40.395432 2.328180 0.139161 42.078896 -3.499094 -7.657231 
0.000000 7.889141 0.000000 0.000000 90.000000 0.000000 -0.344029 -19.016636 0.984869 -0.441132 -26.018032 -0.459802 26.291594 -18.846972 28.409489 0.066217 0.096611 0.093329 0.270925 -7.999191 -0.010855 -2.680298 36.111679 30.198866 -95.010689 0.008671 -7.363434 -40.073406 -3.536922 -11.156754 -0.002182 7.999156 -0.194408 21.738039 -36.002834 16.550611 126.995277 -13.100064 59.103630 6.930373 -0.001188 10.597405 -40.130760 8.964697 67.036255 48.263275 -1.961463 -0.091198 40.309349 3.775821 8.104119 -28.126991 -5.470767 -0.164252 40.395309 2.328181 0.139158 42.078888 -3.499094 -7.657231 
